<!-- Generated by IcoMoon.io -->
<svg version="1.1" xmlns="http://www.w3.org/2000/svg" width="768" height="768" viewBox="0 0 768 768">
<title></title>
<g id="icomoon-ignore">
</g>
<path fill="#000" d="M384 0c212.143 0 384 171.857 384 384 0 210.857-171 384-384 384-212.572 0-384-172.715-384-384 0-212.143 171.857-384 384-384zM649.286 579c39.857-54.857 63.857-122.143 63.857-195 0-181.286-147.857-329.143-329.143-329.143s-329.143 147.857-329.143 329.143c0 72.857 24 140.143 63.857 195 15.428-76.715 52.714-140.143 131.143-140.143 34.714 33.857 81.857 54.857 134.143 54.857s99.428-21 134.143-54.857c78.428 0 115.715 63.428 131.143 140.143zM548.572 301.714c0-90.857-73.714-164.572-164.572-164.572s-164.572 73.715-164.572 164.572 73.715 164.572 164.572 164.572 164.572-73.714 164.572-164.572z"></path>
</svg>
