<!-- Generated by IcoMoon.io -->
<svg version="1.1" xmlns="http://www.w3.org/2000/svg" width="640" height="640" viewBox="0 0 640 640">
<title></title>
<g id="icomoon-ignore">
</g>
<path fill="#000" d="M480 186.667v346.667c0 7.36-2.96 14-7.813 18.853s-11.493 7.813-18.853 7.813h-266.667c-7.36 0-14-2.96-18.853-7.813s-7.813-11.493-7.813-18.853v-346.667zM453.333 133.333v-26.667c0-22.080-8.987-42.133-23.44-56.56s-34.48-23.44-56.56-23.44h-106.667c-22.080 0-42.133 8.987-56.56 23.44s-23.44 34.48-23.44 56.56v26.667h-106.667c-14.72 0-26.667 11.947-26.667 26.667s11.947 26.667 26.667 26.667h26.667v346.667c0 22.080 8.987 42.133 23.44 56.56s34.48 23.44 56.56 23.44h266.667c22.080 0 42.133-8.987 56.56-23.44s23.44-34.48 23.44-56.56v-346.667h26.667c14.72 0 26.667-11.947 26.667-26.667s-11.947-26.667-26.667-26.667zM240 133.333v-26.667c0-7.36 2.96-14 7.813-18.853s11.493-7.813 18.853-7.813h106.667c7.36 0 14 2.96 18.853 7.813s7.813 11.493 7.813 18.853v26.667z"></path>
</svg>
