<!-- Generated by IcoMoon.io -->
<svg version="1.1" xmlns="http://www.w3.org/2000/svg" width="640" height="640" viewBox="0 0 640 640">
<title></title>
<g id="icomoon-ignore">
</g>
<path fill="#000" d="M543.929 478.214c-9.286-66.786-36.429-126.071-97.143-134.286-31.429 34.286-76.786 56.071-126.786 56.071s-95.357-21.786-126.786-56.071c-60.714 8.214-87.857 67.5-97.143 134.286 49.643 70 131.429 116.071 223.929 116.071s174.286-46.071 223.929-116.071zM457.143 228.571c0-75.714-61.429-137.143-137.143-137.143s-137.143 61.429-137.143 137.143 61.429 137.143 137.143 137.143 137.143-61.429 137.143-137.143zM640 320c0 176.071-142.857 320-320 320-176.786 0-320-143.571-320-320 0-176.786 143.214-320 320-320s320 143.214 320 320z"></path>
</svg>
